{
  "accessors": [
    {
      "bufferView": 2,
      "componentType": 5126,
      "count": 65532,
      "max": [
        0.283050000667572,
        0.2826400101184845,
        0.4440400004386902
      ],
      "min": [
        -0.2820500135421753,
        -0.2822299897670746,
        -0.04380999878048897
      ],
      "type": "VEC3"
    },
    {
      "bufferView": 2,
      "byteOffset": 786384,
      "componentType": 5126,
      "count": 65532,
      "max": [
        0.9999720454216003,
        0.9999999403953552,
        0.9999993443489075
      ],
      "min": [
        -0.9999927878379822,
        -0.9999554753303528,
        -0.9995240569114685
      ],
      "type": "VEC3"
    },
    {
      "bufferView": 3,
      "componentType": 5126,
      "count": 65532,
      "max": [
        0.9999933838844299,
        0.9999660849571228,
        0.9999990463256836,
        1.0
      ],
      "min": [
        -0.999883770942688,
        -0.9999541640281677,
        -1.0,
        1.0
      ],
      "type": "VEC4"
    },
    {
      "bufferView": 1,
      "componentType": 5126,
      "count": 65532,
      "max": [
        0.673229992389679,
        0.9136999845504761
      ],
      "min": [
        0.027070000767707825,
        0.01803000085055828
      ],
      "type": "VEC2"
    },
    {
      "bufferView": 1,
      "byteOffset": 524256,
      "componentType": 5126,
      "count": 65532,
      "max": [
        0.673229992389679,
        0.9136999845504761
      ],
      "min": [
        0.027070000767707825,
        0.01803000085055828
      ],
      "type": "VEC2"
    },
    {
      "bufferView": 0,
      "componentType": 5125,
      "count": 389016,
      "type": "SCALAR"
    },
    {
      "bufferView": 2,
      "byteOffset": 1572768,
      "componentType": 5126,
      "count": 27341,
      "max": [
        0.28147000074386597,
        0.2617500126361847,
        0.4431299865245819
      ],
      "min": [
        -0.2777099907398224,
        -0.27987998723983765,
        -0.044449999928474426
      ],
      "type": "VEC3"
    },
    {
      "bufferView": 2,
      "byteOffset": 1900860,
      "componentType": 5126,
      "count": 27341,
      "max": [
        0.997887372970581,
        0.999413251876831,
        0.9999977946281433
      ],
      "min": [
        -0.9997456073760986,
        -0.9987441301345825,
        -1.0
      ],
      "type": "VEC3"
    },
    {
      "bufferView": 3,
      "byteOffset": 1048512,
      "componentType": 5126,
      "count": 27341,
      "max": [
        0.9999998211860657,
        0.9360127449035645,
        0.9999936819076538,
        1.0
      ],
      "min": [
        -0.9972719550132751,
        -0.9509447813034058,
        -0.9997836947441101,
        1.0
      ],
      "type": "VEC4"
    },
    {
      "bufferView": 1,
      "byteOffset": 1048512,
      "componentType": 5126,
      "count": 27341,
      "max": [
        0.9703699946403503,
        0.9805300235748291
      ],
      "min": [
        0.027070000767707825,
        0.01803000085055828
      ],
      "type": "VEC2"
    },
    {
      "bufferView": 1,
      "byteOffset": 1267240,
      "componentType": 5126,
      "count": 27341,
      "max": [
        0.9703699946403503,
        0.9805300235748291
      ],
      "min": [
        0.027070000767707825,
        0.01803000085055828
      ],
      "type": "VEC2"
    },
    {
      "bufferView": 0,
      "byteOffset": 1556064,
      "componentType": 5125,
      "count": 160872,
      "type": "SCALAR"
    },
    {
      "bufferView": 2,
      "byteOffset": 2228952,
      "componentType": 5126,
      "count": 4,
      "max": [
        1.0,
        1.0,
        0.0
      ],
      "min": [
        -1.0,
        -1.0,
        0.0
      ],
      "type": "VEC3"
    },
    {
      "bufferView": 2,
      "byteOffset": 2229000,
      "componentType": 5126,
      "count": 4,
      "max": [
        0.0,
        0.0,
        1.0
      ],
      "min": [
        0.0,
        0.0,
        1.0
      ],
      "type": "VEC3"
    },
    {
      "bufferView": 0,
      "byteOffset": 2199552,
      "componentType": 5125,
      "count": 6,
      "type": "SCALAR"
    },
    {
      "bufferView": 2,
      "byteOffset": 2229048,
      "componentType": 5126,
      "count": 3823,
      "max": [
        0.38784000277519226,
        0.34115999937057495,
        1.6193499565124512
      ],
      "min": [
        -0.3436200022697449,
        -0.4648999869823456,
        0.07485000044107437
      ],
      "type": "VEC3"
    },
    {
      "bufferView": 2,
      "byteOffset": 2274924,
      "componentType": 5126,
      "count": 3823,
      "max": [
        0.9994344115257263,
        0.998886227607727,
        0.010440345853567123
      ],
      "min": [
        -0.9986575841903687,
        -0.9994819164276123,
        -1.0
      ],
      "type": "VEC3"
    },
    {
      "bufferView": 3,
      "byteOffset": 1485968,
      "componentType": 5126,
      "count": 3823,
      "max": [
        0.9957141280174255,
        1.0,
        0.9992529153823853,
        1.0
      ],
      "min": [
        -0.9999143481254578,
        -0.9932357668876648,
        -0.9915748238563538,
        -1.0
      ],
      "type": "VEC4"
    },
    {
      "bufferView": 1,
      "byteOffset": 1485968,
      "componentType": 5126,
      "count": 3823,
      "max": [
        0.9965299963951111,
        0.9900100231170654
      ],
      "min": [
        0.01205000001937151,
        0.0083600003272295
      ],
      "type": "VEC2"
    },
    {
      "bufferView": 1,
      "byteOffset": 1516552,
      "componentType": 5126,
      "count": 3823,
      "max": [
        0.9965299963951111,
        0.9900100231170654
      ],
      "min": [
        0.01205000001937151,
        0.0083600003272295
      ],
      "type": "VEC2"
    },
    {
      "bufferView": 1,
      "byteOffset": 1547136,
      "componentType": 5126,
      "count": 3823,
      "max": [
        0.9965299963951111,
        0.9900100231170654
      ],
      "min": [
        0.01205000001937151,
        0.0083600003272295
      ],
      "type": "VEC2"
    },
    {
      "bufferView": 0,
      "byteOffset": 2199576,
      "componentType": 5125,
      "count": 18864,
      "type": "SCALAR"
    }
  ],
  "asset": {
    "extras": {
      "author": "3DHaupt (https://sketchfab.com/dennish2010)",
      "license": "CC-BY-NC-ND-4.0 (http://creativecommons.org/licenses/by-nc-nd/4.0/)",
      "source": "https://sketchfab.com/3d-models/indoor-pot-plant-3-8ad9b497549f42d4b8fa798828d6ec1e",
      "title": "Indoor Pot Plant 3"
    },
    "generator": "Sketchfab-12.64.0",
    "version": "2.0"
  },
  "bufferViews": [
    {
      "buffer": 0,
      "byteLength": 2275032,
      "name": "floatBufferViews",
      "target": 34963
    },
    {
      "buffer": 0,
      "byteLength": 1577720,
      "byteOffset": 2275032,
      "byteStride": 8,
      "name": "floatBufferViews",
      "target": 34962
    },
    {
      "buffer": 0,
      "byteLength": 2320800,
      "byteOffset": 3852752,
      "byteStride": 12,
      "name": "floatBufferViews",
      "target": 34962
    },
    {
      "buffer": 0,
      "byteLength": 1547136,
      "byteOffset": 6173552,
      "byteStride": 16,
      "name": "floatBufferViews",
      "target": 34962
    }
  ],
  "buffers": [
    {
      "byteLength": 7720688,
      "uri": "scene.bin"
    }
  ],
  "images": [
    {
      "uri": "textures/Blatt_baseColor.png"
    },
    {
      "uri": "textures/Blatt_metallicRoughness.png"
    },
    {
      "uri": "textures/Blatt_normal.png"
    },
    {
      "uri": "textures/Material_baseColor.jpeg"
    },
    {
      "uri": "textures/Material_metallicRoughness.png"
    },
    {
      "uri": "textures/Material_normal.png"
    }
  ],
  "materials": [
    {
      "alphaMode": "BLEND",
      "doubleSided": true,
      "name": "Root",
      "pbrMetallicRoughness": {
        "baseColorFactor": [
          1.0,
          1.0,
          1.0,
          0.0
        ],
        "metallicFactor": 0.0,
        "roughnessFactor": 0.6
      }
    },
    {
      "alphaMode": "BLEND",
      "doubleSided": true,
      "name": "Blatt",
      "normalTexture": {
        "index": 2
      },
      "pbrMetallicRoughness": {
        "baseColorFactor": [
          1.0,
          1.0,
          1.0,
          0.995
        ],
        "baseColorTexture": {
          "index": 0
        },
        "metallicRoughnessTexture": {
          "index": 1
        }
      }
    },
    {
      "name": "Material",
      "normalTexture": {
        "index": 5,
        "texCoord": 1
      },
      "occlusionTexture": {
        "index": 4
      },
      "pbrMetallicRoughness": {
        "baseColorTexture": {
          "index": 3
        },
        "metallicFactor": 0.0,
        "metallicRoughnessTexture": {
          "index": 4
        }
      }
    }
  ],
  "meshes": [
    {
      "name": "Low-Poly Plant__0",
      "primitives": [
        {
          "attributes": {
            "NORMAL": 1,
            "POSITION": 0,
            "TANGENT": 2,
            "TEXCOORD_0": 3,
            "TEXCOORD_1": 4
          },
          "indices": 5,
          "material": 2,
          "mode": 4
        }
      ]
    },
    {
      "name": "Low-Poly Plant__0",
      "primitives": [
        {
          "attributes": {
            "NORMAL": 7,
            "POSITION": 6,
            "TANGENT": 8,
            "TEXCOORD_0": 9,
            "TEXCOORD_1": 10
          },
          "indices": 11,
          "material": 2,
          "mode": 4
        }
      ]
    },
    {
      "name": "Plane_0",
      "primitives": [
        {
          "attributes": {
            "NORMAL": 13,
            "POSITION": 12
          },
          "indices": 14,
          "material": 0,
          "mode": 4
        }
      ]
    },
    {
      "name": "Low-Poly Plant_.001_0",
      "primitives": [
        {
          "attributes": {
            "NORMAL": 16,
            "POSITION": 15,
            "TANGENT": 17,
            "TEXCOORD_0": 18,
            "TEXCOORD_1": 19,
            "TEXCOORD_2": 20
          },
          "indices": 21,
          "material": 1,
          "mode": 4
        }
      ]
    }
  ],
  "nodes": [
    {
      "children": [
        1
      ],
      "matrix": [
        1.4318360090255737,
        0.0,
        0.0,
        0.0,
        0.0,
        3.179314609415171e-16,
        -1.4318360090255737,
        0.0,
        0.0,
        1.4318360090255737,
        3.179314609415171e-16,
        0.0,
        0.0,
        0.0,
        0.0,
        1.0
      ],
      "name": "Sketchfab_model"
    },
    {
      "children": [
        2,
        5,
        7,
        9,
        11
      ],
      "name": "Root"
    },
    {
      "children": [
        3,
        4
      ],
      "matrix": [
        0.0,
        -0.81053,
        0.0,
        0.0,
        0.81053,
        0.0,
        0.0,
        0.0,
        0.0,
        0.0,
        0.81053,
        0.0,
        0.0,
        0.0,
        0.0,
        1.0
      ],
      "name": "Low-Poly Plant_"
    },
    {
      "mesh": 0,
      "name": "Low-Poly Plant__0"
    },
    {
      "mesh": 1,
      "name": "Low-Poly Plant__0"
    },
    {
      "children": [
        6
      ],
      "matrix": [
        0.75458,
        0.0,
        0.0,
        0.0,
        0.0,
        0.75458,
        0.0,
        0.0,
        0.0,
        0.0,
        0.75458,
        0.0,
        0.0,
        0.0,
        -0.08125000000000002,
        1.0
      ],
      "name": "Plane"
    },
    {
      "mesh": 2,
      "name": "Plane_0"
    },
    {
      "children": [
        8
      ],
      "matrix": [
        0.0,
        -0.81053,
        0.0,
        0.0,
        0.81053,
        0.0,
        0.0,
        0.0,
        0.0,
        0.0,
        0.81053,
        0.0,
        0.0,
        0.0,
        0.0,
        1.0
      ],
      "name": "Low-Poly Plant_.001"
    },
    {
      "mesh": 3,
      "name": "Low-Poly Plant_.001_0"
    },
    {
      "children": [
        10
      ],
      "matrix": [
        0.99054,
        -0.09281000000000002,
        -0.10113000000000001,
        0.0,
        0.04374000000000001,
        0.9117900000000001,
        -0.40833,
        0.0,
        0.1301,
        0.40004,
        0.90722,
        0.0,
        -0.75356,
        1.3859899999999998,
        2.0054399999999997,
        1.0
      ],
      "name": "Hemi"
    },
    {
      "name": "Hemi"
    },
    {
      "children": [
        12
      ],
      "matrix": [
        1.0,
        0.0,
        0.0,
        0.0,
        0.0,
        1.0,
        0.0,
        0.0,
        0.0,
        0.0,
        1.0,
        0.0,
        -0.52227,
        -2.0163999999999995,
        2.3271300000000004,
        1.0
      ],
      "name": "Point"
    },
    {
      "name": "Point"
    }
  ],
  "samplers": [
    {
      "magFilter": 9729,
      "minFilter": 9987,
      "wrapS": 10497,
      "wrapT": 10497
    }
  ],
  "scene": 0,
  "scenes": [
    {
      "name": "Sketchfab_Scene",
      "nodes": [
        0
      ]
    }
  ],
  "textures": [
    {
      "sampler": 0,
      "source": 0
    },
    {
      "sampler": 0,
      "source": 1
    },
    {
      "sampler": 0,
      "source": 2
    },
    {
      "sampler": 0,
      "source": 3
    },
    {
      "sampler": 0,
      "source": 4
    },
    {
      "sampler": 0,
      "source": 5
    }
  ]
}
