{
    "asset" : {
        "generator" : "Khronos glTF Blender I/O v1.5.17",
        "version" : "2.0"
    },
    "scene" : 0,
    "scenes" : [
        {
            "name" : "Scene",
            "nodes" : [
                0
            ]
        }
    ],
    "nodes" : [
        {
            "mesh" : 0,
            "name" : "Teapot"
        }
    ],
    "materials" : [
        {
            "doubleSided" : true,
            "name" : "Material.001",
            "pbrMetallicRoughness" : {
                "baseColorFactor" : [
                    0.800000011920929,
                    0.800000011920929,
                    0.800000011920929,
                    1
                ],
                "metallicFactor" : 0.8308823704719543,
                "roughnessFactor" : 0.22058823704719543
            }
        }
    ],
    "meshes" : [
        {
            "name" : "Teapot",
            "primitives" : [
                {
                    "attributes" : {
                        "POSITION" : 0,
                        "NORMAL" : 1
                    },
                    "indices" : 2,
                    "material" : 0
                }
            ]
        }
    ],
    "accessors" : [
        {
            "bufferView" : 0,
            "componentType" : 5126,
            "count" : 821,
            "max" : [
                3.434000015258789,
                3.1500000953674316,
                2
            ],
            "min" : [
                -3,
                0,
                -2
            ],
            "type" : "VEC3"
        },
        {
            "bufferView" : 1,
            "componentType" : 5126,
            "count" : 821,
            "type" : "VEC3"
        },
        {
            "bufferView" : 2,
            "componentType" : 5123,
            "count" : 4680,
            "type" : "SCALAR"
        }
    ],
    "bufferViews" : [
        {
            "buffer" : 0,
            "byteLength" : 9852,
            "byteOffset" : 0
        },
        {
            "buffer" : 0,
            "byteLength" : 9852,
            "byteOffset" : 9852
        },
        {
            "buffer" : 0,
            "byteLength" : 9360,
            "byteOffset" : 19704
        }
    ],
    "buffers" : [
        {
            "byteLength" : 29064,
            "uri" : "Teapot.bin"
        }
    ]
}
